# xmcd
#
# Track frame offsets:
#	150
#	16824
#	27844
#	49953
#	64590
#	77143
#	92512
#	111989
#	130387
#	146532
#	162023
#	177088
#	191111
#	204772
#	225112
#	243271
#	261327
#	277434
#	291788
#	310850
#
# Disc length: 4314 seconds
#
# Revision: 1
# Processed by: cddbd v1.4PL0 Copyright (c) Steve Scherf et al.
# Submitted via: audiograbber 1.81.02
#
DISCID=1410d814
DTITLE=Mixed Country - Drinking Tunes
DYEAR=2002
DGENRE=Country
TTITLE0=Toby Keith - Big Ol' Truck
TTITLE1=Toby Keith - Ain't Much fun (Since i stopped drinking)
TTITLE2=Toby Keith - Who's that man
TTITLE3=Confederate Railroad - Trashy Women
TTITLE4=Confederate Railroad - She took it like a man
TTITLE5=Confederate Railroad - She never cried
TTITLE6=Travis Tritt - Put some drive in your country
TTITLE7=Travis Tritt - I'm gonna be somebody someday
TTITLE8=Keith Whitley - I'm No stranger to the rain
TTITLE9=Keith Whitley - Miami, My Amy
TTITLE10=Keith Whitley - Ten Feet away
TTITLE11=David Allen Coe - The Ride
TTITLE12=David Allen Coe - Divers do it deeper
TTITLE13=Merle Haggard - I think I'll just stay here and Drink
TTITLE14=Hank Williams Jr. - All in Alabama
TTITLE15=Pirates of the Mississippi - Feed Jake
TTITLE16=Pirates of the Mississippi - I take my Comfort in you
TTITLE17=Pirates of the Mississippi - Rolling home
TTITLE18=Hank Williams Jr. - A Country can Survive
TTITLE19=Hank Williams Jr. - Women I have never had
EXTD=Here is a collection of some good drinking Tunes. AC
EXTT0=
EXTT1=
EXTT2=
EXTT3=
EXTT4=
EXTT5=
EXTT6=
EXTT7=
EXTT8=
EXTT9=
EXTT10=
EXTT11=
EXTT12=
EXTT13=
EXTT14=
EXTT15=
EXTT16=
EXTT17=
EXTT18=
EXTT19=
PLAYORDER=
